<?xml version="1.0" encoding="utf-8"?>
<!-- Generator: Adobe Illustrator 16.0.0, SVG Export Plug-In . SVG Version: 6.00 Build 0)  -->
<!DOCTYPE svg PUBLIC "-//W3C//DTD SVG 1.1//EN" "http://www.w3.org/Graphics/SVG/1.1/DTD/svg11.dtd">
<svg version="1.1" id="Layer_1" xmlns="http://www.w3.org/2000/svg" xmlns:xlink="http://www.w3.org/1999/xlink" x="0px" y="0px"
	 width="68.592px" height="91px" viewBox="0 0 68.592 91" enable-background="new 0 0 68.592 91" xml:space="preserve">
<g>
	<circle fill="#231F20" cx="33.629" cy="39.978" r="5.501"/>
	<polygon fill="#231F20" points="36.036,47.613 36.036,72.192 41.107,67.126 44.001,75.203 46.433,74.33 43.564,66.325 
		51.351,67.582 	"/>
	<path fill="#231F20" d="M23.881,39.981c0-5.363,4.368-9.747,9.748-9.747c5.382,0,9.733,4.383,9.733,9.747
		c0,3.587-1.939,6.723-4.826,8.419l6.149,8.146c5.343-3.577,8.867-9.67,8.867-16.566c0-10.993-8.926-19.932-19.923-19.932
		c-10.981,0-19.92,8.939-19.92,19.932c0,10.98,8.939,19.923,19.92,19.923c0.317,0,0.632-0.01,0.946-0.024l0.342-10.229
		c-0.422,0.054-0.85,0.095-1.288,0.095C28.248,49.742,23.881,45.362,23.881,39.981z"/>
</g>
</svg>
