<?xml version="1.0" encoding="utf-8"?>
<!-- Generator: Adobe Illustrator 16.0.0, SVG Export Plug-In . SVG Version: 6.00 Build 0)  -->
<!DOCTYPE svg PUBLIC "-//W3C//DTD SVG 1.1//EN" "http://www.w3.org/Graphics/SVG/1.1/DTD/svg11.dtd">
<svg version="1.1" id="Layer_1" xmlns="http://www.w3.org/2000/svg" xmlns:xlink="http://www.w3.org/1999/xlink" x="0px" y="0px"
	 width="76.324px" height="99.825px" viewBox="0 0 76.324 99.825" enable-background="new 0 0 76.324 99.825" xml:space="preserve">
<path fill="#231F20" d="M55.436,44.217l4.22-1.654l-0.212-3.295l-4.184-0.774c-0.238-1.211-0.597-2.374-1.066-3.474l2.756-3.025
	l-1.65-2.859l-4.097,1.156c-0.729-0.823-1.532-1.573-2.399-2.244l0.584-4.71l-2.997-1.381l-2.708,3.345
	c-1.092-0.368-2.227-0.629-3.396-0.775l-1.558-4.083l-3.364,0.38l-0.67,3.907c-1.211,0.24-2.373,0.6-3.472,1.07l-2.854-2.812
	l-2.922,1.54l1.034,4.291c-0.688,0.614-1.326,1.28-1.908,1.991l-4.507-0.533l-1.366,3.009l3.043,2.431
	c-0.397,1.053-0.695,2.149-0.882,3.278l-4.195,1.796l0.315,3.288l3.868,0.594c0.184,1.137,0.477,2.232,0.863,3.276l-2.812,3.491
	l1.822,2.755l3.794-1.325c0.791,0.976,1.681,1.862,2.657,2.646l-0.853,4.395l2.899,1.584l2.947-3.176
	c1.226,0.442,2.512,0.752,3.837,0.911l1.529,4.112l3.299-0.155l0.854-4.2c1.163-0.241,2.279-0.596,3.337-1.052l3.51,2.85l2.762-1.81
	l-1.432-4.161c0.855-0.779,1.632-1.639,2.315-2.568l4.312,0.811l1.567-2.908l-3.278-3.007
	C55.078,46.193,55.301,45.218,55.436,44.217z M38.567,45.947c-2.251,0.254-4.28-1.364-4.536-3.616
	c-0.254-2.25,1.365-4.28,3.615-4.536c2.254-0.255,4.283,1.363,4.536,3.614C42.435,43.662,40.817,45.692,38.567,45.947z"/>
<path fill="#231F20" d="M45.581,75.51c0,1.293-0.995,2.34-2.222,2.34h-9.391c-1.228,0-2.222-1.05-2.222-2.34l0,0
	c0-1.292,0.996-2.338,2.222-2.338h9.39C44.586,73.172,45.581,74.218,45.581,75.51L45.581,75.51z"/>
<path fill="#231F20" d="M45.581,69.047c0,1.288-0.995,2.34-2.222,2.34h-9.391c-1.228,0-2.222-1.049-2.222-2.34l0,0
	c0-1.293,0.996-2.341,2.222-2.341h9.39C44.586,66.706,45.581,67.754,45.581,69.047L45.581,69.047z"/>
<path fill="#FFFFFF" d="M29.212,39.183c0,0,2.247-5.541,8.869-5.634c6.621-0.093,8.924,5.588,8.924,5.588s-0.086,1.314-1.409,0.375
	c0,0-1.832-4.624-7.444-4.549c-5.609,0.08-7.719,4.811-7.719,4.811S29.278,40.494,29.212,39.183z"/>
<circle fill="#231F20" cx="38.173" cy="41.97" r="1.997"/>
</svg>
