<?xml version="1.0" encoding="utf-8"?>
<!-- Generator: Adobe Illustrator 16.0.0, SVG Export Plug-In . SVG Version: 6.00 Build 0)  -->
<!DOCTYPE svg PUBLIC "-//W3C//DTD SVG 1.1//EN" "http://www.w3.org/Graphics/SVG/1.1/DTD/svg11.dtd">
<svg version="1.1" id="Layer_1" xmlns="http://www.w3.org/2000/svg" xmlns:xlink="http://www.w3.org/1999/xlink" x="0px" y="0px"
	 width="74.584px" height="97.547px" viewBox="0 0 74.584 97.547" enable-background="new 0 0 74.584 97.547" xml:space="preserve">
<g>
	
		<rect x="44.135" y="44.325" transform="matrix(-0.915 -0.4035 0.4035 -0.915 81.6258 125.6839)" fill="#FFFFFF" width="19.837" height="19.836"/>
</g>
<polygon points="52.336,49.942 49.428,48.539 46.697,54.205 49.86,55.52 53.431,60.838 59.061,49.162 "/>
<g>
	<g>
		<g>
			<path d="M55.857,58.974c-0.021,0-0.04,0-0.061,0l0.01-0.527c0.016,0,0.031,0,0.048,0c1.972,0,3.021-2.322,3.03-2.346
				c0.699-1.902-0.334-3.415-0.345-3.429l0.43-0.3c0.052,0.069,1.201,1.752,0.399,3.924C59.317,56.42,58.168,58.974,55.857,58.974z"
				/>
		</g>
	</g>
	<g>
		<g>
			<path d="M55.718,57.465l-0.171-0.498c1.057-0.359,1.721-0.894,1.972-1.588c0.369-1.009-0.246-2.039-0.252-2.051l0.448-0.272
				c0.032,0.052,0.752,1.259,0.297,2.501C57.704,56.41,56.932,57.05,55.718,57.465z"/>
		</g>
	</g>
</g>
<g>
	
		<rect x="26.856" y="62.88" transform="matrix(-0.7169 0.6972 -0.6972 -0.7169 105.1478 95.657)" fill="#FFFFFF" width="12.593" height="12.593"/>
	<g>
		<path fill="#231F20" d="M32.626,68.396c-0.843,0.693-0.965,1.938-0.272,2.782c0.694,0.844,1.94,0.966,2.784,0.273
			c0.845-0.694,0.966-1.939,0.271-2.783C34.716,67.825,33.471,67.701,32.626,68.396z M34.438,70.598
			c-0.375,0.308-0.926,0.254-1.232-0.12c-0.307-0.373-0.253-0.922,0.12-1.23c0.374-0.306,0.926-0.253,1.233,0.122
			C34.866,69.742,34.812,70.291,34.438,70.598z"/>
		<path fill="#231F20" d="M36.925,66.593c-0.007-0.004-0.72-0.312-1.663-0.418c-0.87-0.101-2.205,0.027-3.481,1.075
			c-1.275,1.049-1.67,2.31-1.764,3.171c-0.103,0.935-0.039,1.745-0.037,1.752c0,0,0.135,0.247,0.48,0.129
			c0.232-0.081,0.29-0.371,0.29-0.371c0-0.007-0.147-0.614-0.044-1.421c0.096-0.741,0.438-1.814,1.509-2.696
			c1.072-0.88,2.145-0.977,2.854-0.904c0.767,0.083,1.29,0.272,1.294,0.273c0,0,0.493,0.177,0.647-0.21
			C37.128,66.682,36.925,66.593,36.925,66.593z"/>
	</g>
</g>
<rect x="9.015" y="14.611" fill="#FFFFFF" width="32.982" height="32.984"/>
<g>
	<path d="M20.185,25.455c0-0.739-0.594-1.329-1.326-1.329c-0.735,0-1.328,0.59-1.328,1.329c0,0.73,0.593,1.328,1.328,1.328
		C19.591,26.783,20.185,26.185,20.185,25.455z"/>
	<path d="M27.101,26.783c0.734,0,1.327-0.597,1.327-1.328c0-0.739-0.593-1.329-1.327-1.329s-1.328,0.59-1.328,1.329
		C25.773,26.185,26.367,26.783,27.101,26.783z"/>
	<path d="M34.136,28.158l-3.1,2.356h-1.878l0.054-1.178h-0.941c1.665,0,2.875-2.089,2.875-3.934c0-2.292-1.858-4.152-4.15-4.152
		c-2.196,0-3.975,1.711-4.122,3.87c-0.147-2.158-1.924-3.87-4.122-3.87c-2.293,0-4.15,1.864-4.15,4.153
		c0,1.844,1.211,3.934,2.875,3.934h-0.215v3.531l0.356,5.259l11.423-0.112v-1.329l2.253,0.058l3.638,1.603V28.159L34.136,28.158
		L34.136,28.158z M27.106,23.016c1.345,0,2.436,1.092,2.436,2.439c0,1.344-1.089,2.434-2.436,2.434c-1.347,0-2.434-1.09-2.434-2.434
		C24.672,24.108,25.76,23.016,27.106,23.016z M16.429,25.455c0-1.346,1.089-2.439,2.435-2.439c1.345,0,2.437,1.092,2.437,2.439
		c0,1.343-1.091,2.432-2.437,2.432C17.518,27.887,16.429,26.798,16.429,25.455z M20.028,29.336c1.578,0,2.729-1.93,2.845-3.65
		c0.118,1.72,1.27,3.65,2.847,3.65h-1.105H20.028z"/>
</g>
</svg>
